<mxfile host="app.diagrams.net" modified="2024-03-23T08:23:21.773Z" agent="Mozilla/5.0 (Windows NT 10.0; Win64; x64) AppleWebKit/537.36 (KHTML, like Gecko) Chrome/123.0.0.0 Safari/537.36" etag="BCwa6Kay6vzlZOecm8OM" version="24.0.7" type="github">
  <diagram name="페이지-1" id="WkgsUb-CPFPgky68cHxy">
    <mxGraphModel dx="956" dy="549" grid="1" gridSize="10" guides="1" tooltips="1" connect="1" arrows="1" fold="1" page="1" pageScale="1" pageWidth="827" pageHeight="1169" math="0" shadow="0">
      <root>
        <mxCell id="0" />
        <mxCell id="1" parent="0" />
        <mxCell id="gZqIutaZhjVk858I8tLJ-1" value="고객" style="whiteSpace=wrap;html=1;align=center;" vertex="1" parent="1">
          <mxGeometry x="320" y="280" width="100" height="40" as="geometry" />
        </mxCell>
        <mxCell id="gZqIutaZhjVk858I8tLJ-2" value="주소" style="ellipse;whiteSpace=wrap;html=1;align=center;" vertex="1" parent="1">
          <mxGeometry x="170" y="280" width="100" height="40" as="geometry" />
        </mxCell>
        <mxCell id="gZqIutaZhjVk858I8tLJ-3" value="기본주소" style="ellipse;whiteSpace=wrap;html=1;align=center;" vertex="1" parent="1">
          <mxGeometry x="40" y="230" width="100" height="40" as="geometry" />
        </mxCell>
        <mxCell id="gZqIutaZhjVk858I8tLJ-4" value="상세주소" style="ellipse;whiteSpace=wrap;html=1;align=center;" vertex="1" parent="1">
          <mxGeometry x="40" y="300" width="100" height="40" as="geometry" />
        </mxCell>
        <mxCell id="gZqIutaZhjVk858I8tLJ-5" value="가입일" style="ellipse;whiteSpace=wrap;html=1;align=center;" vertex="1" parent="1">
          <mxGeometry x="220" y="360" width="100" height="40" as="geometry" />
        </mxCell>
        <mxCell id="gZqIutaZhjVk858I8tLJ-7" value="고객명" style="ellipse;whiteSpace=wrap;html=1;align=center;" vertex="1" parent="1">
          <mxGeometry x="210" y="200" width="100" height="40" as="geometry" />
        </mxCell>
        <mxCell id="gZqIutaZhjVk858I8tLJ-8" value="전화번호" style="ellipse;whiteSpace=wrap;html=1;align=center;fontStyle=4;" vertex="1" parent="1">
          <mxGeometry x="330" y="190" width="100" height="40" as="geometry" />
        </mxCell>
        <mxCell id="gZqIutaZhjVk858I8tLJ-9" value="이메일" style="ellipse;whiteSpace=wrap;html=1;align=center;fontStyle=4;" vertex="1" parent="1">
          <mxGeometry x="460" y="200" width="100" height="40" as="geometry" />
        </mxCell>
        <mxCell id="gZqIutaZhjVk858I8tLJ-10" value="고객코드" style="ellipse;whiteSpace=wrap;html=1;align=center;fontStyle=4;" vertex="1" parent="1">
          <mxGeometry x="470" y="290" width="100" height="40" as="geometry" />
        </mxCell>
        <mxCell id="gZqIutaZhjVk858I8tLJ-11" value="" style="endArrow=none;html=1;rounded=0;exitX=0.807;exitY=0.925;exitDx=0;exitDy=0;exitPerimeter=0;entryX=0.5;entryY=0;entryDx=0;entryDy=0;" edge="1" parent="1" source="gZqIutaZhjVk858I8tLJ-7" target="gZqIutaZhjVk858I8tLJ-1">
          <mxGeometry relative="1" as="geometry">
            <mxPoint x="290" y="340" as="sourcePoint" />
            <mxPoint x="450" y="340" as="targetPoint" />
          </mxGeometry>
        </mxCell>
        <mxCell id="gZqIutaZhjVk858I8tLJ-12" value="" style="endArrow=none;html=1;rounded=0;exitX=0.5;exitY=1;exitDx=0;exitDy=0;entryX=0.5;entryY=0;entryDx=0;entryDy=0;" edge="1" parent="1" source="gZqIutaZhjVk858I8tLJ-8" target="gZqIutaZhjVk858I8tLJ-1">
          <mxGeometry relative="1" as="geometry">
            <mxPoint x="301" y="247" as="sourcePoint" />
            <mxPoint x="380" y="290" as="targetPoint" />
          </mxGeometry>
        </mxCell>
        <mxCell id="gZqIutaZhjVk858I8tLJ-13" value="" style="endArrow=none;html=1;rounded=0;exitX=0;exitY=1;exitDx=0;exitDy=0;entryX=0.5;entryY=0;entryDx=0;entryDy=0;" edge="1" parent="1" source="gZqIutaZhjVk858I8tLJ-9" target="gZqIutaZhjVk858I8tLJ-1">
          <mxGeometry relative="1" as="geometry">
            <mxPoint x="390" y="240" as="sourcePoint" />
            <mxPoint x="380" y="290" as="targetPoint" />
          </mxGeometry>
        </mxCell>
        <mxCell id="gZqIutaZhjVk858I8tLJ-14" value="" style="endArrow=none;html=1;rounded=0;exitX=0;exitY=0.5;exitDx=0;exitDy=0;" edge="1" parent="1" source="gZqIutaZhjVk858I8tLJ-10">
          <mxGeometry relative="1" as="geometry">
            <mxPoint x="485" y="244" as="sourcePoint" />
            <mxPoint x="420" y="300" as="targetPoint" />
          </mxGeometry>
        </mxCell>
        <mxCell id="gZqIutaZhjVk858I8tLJ-16" value="" style="endArrow=none;html=1;rounded=0;exitX=0.5;exitY=0;exitDx=0;exitDy=0;entryX=0.5;entryY=1;entryDx=0;entryDy=0;" edge="1" parent="1" source="gZqIutaZhjVk858I8tLJ-5" target="gZqIutaZhjVk858I8tLJ-1">
          <mxGeometry relative="1" as="geometry">
            <mxPoint x="410" y="370" as="sourcePoint" />
            <mxPoint x="380" y="330" as="targetPoint" />
          </mxGeometry>
        </mxCell>
        <mxCell id="gZqIutaZhjVk858I8tLJ-17" value="" style="endArrow=none;html=1;rounded=0;exitX=1;exitY=0.5;exitDx=0;exitDy=0;entryX=0;entryY=0.5;entryDx=0;entryDy=0;" edge="1" parent="1" source="gZqIutaZhjVk858I8tLJ-2" target="gZqIutaZhjVk858I8tLJ-1">
          <mxGeometry relative="1" as="geometry">
            <mxPoint x="280" y="370" as="sourcePoint" />
            <mxPoint x="380" y="330" as="targetPoint" />
          </mxGeometry>
        </mxCell>
        <mxCell id="gZqIutaZhjVk858I8tLJ-19" value="" style="endArrow=none;html=1;rounded=0;entryX=0;entryY=0.5;entryDx=0;entryDy=0;" edge="1" parent="1" source="gZqIutaZhjVk858I8tLJ-3" target="gZqIutaZhjVk858I8tLJ-2">
          <mxGeometry relative="1" as="geometry">
            <mxPoint x="280" y="310" as="sourcePoint" />
            <mxPoint x="330" y="310" as="targetPoint" />
          </mxGeometry>
        </mxCell>
        <mxCell id="gZqIutaZhjVk858I8tLJ-20" value="" style="endArrow=none;html=1;rounded=0;entryX=0;entryY=0.5;entryDx=0;entryDy=0;exitX=1;exitY=0.5;exitDx=0;exitDy=0;" edge="1" parent="1" source="gZqIutaZhjVk858I8tLJ-4" target="gZqIutaZhjVk858I8tLJ-2">
          <mxGeometry relative="1" as="geometry">
            <mxPoint x="127" y="277" as="sourcePoint" />
            <mxPoint x="180" y="310" as="targetPoint" />
          </mxGeometry>
        </mxCell>
        <mxCell id="gZqIutaZhjVk858I8tLJ-21" value="지역" style="whiteSpace=wrap;html=1;align=center;" vertex="1" parent="1">
          <mxGeometry x="250" y="545" width="100" height="40" as="geometry" />
        </mxCell>
        <mxCell id="gZqIutaZhjVk858I8tLJ-22" value="지역명" style="ellipse;whiteSpace=wrap;html=1;align=center;" vertex="1" parent="1">
          <mxGeometry x="100" y="520" width="100" height="40" as="geometry" />
        </mxCell>
        <mxCell id="gZqIutaZhjVk858I8tLJ-24" value="지역코드" style="ellipse;whiteSpace=wrap;html=1;align=center;fontStyle=4;" vertex="1" parent="1">
          <mxGeometry x="100" y="600" width="100" height="40" as="geometry" />
        </mxCell>
        <mxCell id="gZqIutaZhjVk858I8tLJ-26" value="" style="endArrow=none;html=1;rounded=0;exitX=1;exitY=0.5;exitDx=0;exitDy=0;entryX=0;entryY=0.5;entryDx=0;entryDy=0;" edge="1" parent="1" source="gZqIutaZhjVk858I8tLJ-22" target="gZqIutaZhjVk858I8tLJ-21">
          <mxGeometry relative="1" as="geometry">
            <mxPoint x="200" y="370" as="sourcePoint" />
            <mxPoint x="300" y="330" as="targetPoint" />
          </mxGeometry>
        </mxCell>
        <mxCell id="gZqIutaZhjVk858I8tLJ-27" value="" style="endArrow=none;html=1;rounded=0;exitX=1;exitY=0.5;exitDx=0;exitDy=0;entryX=0;entryY=0.5;entryDx=0;entryDy=0;" edge="1" parent="1" source="gZqIutaZhjVk858I8tLJ-24" target="gZqIutaZhjVk858I8tLJ-21">
          <mxGeometry relative="1" as="geometry">
            <mxPoint x="210" y="550" as="sourcePoint" />
            <mxPoint x="260" y="575" as="targetPoint" />
          </mxGeometry>
        </mxCell>
        <mxCell id="gZqIutaZhjVk858I8tLJ-28" value="제품" style="whiteSpace=wrap;html=1;align=center;" vertex="1" parent="1">
          <mxGeometry x="600" y="570" width="100" height="40" as="geometry" />
        </mxCell>
        <mxCell id="gZqIutaZhjVk858I8tLJ-30" value="제품명" style="ellipse;whiteSpace=wrap;html=1;align=center;" vertex="1" parent="1">
          <mxGeometry x="460" y="570" width="100" height="40" as="geometry" />
        </mxCell>
        <mxCell id="gZqIutaZhjVk858I8tLJ-31" value="제품구분" style="ellipse;whiteSpace=wrap;html=1;align=center;" vertex="1" parent="1">
          <mxGeometry x="460" y="640" width="100" height="40" as="geometry" />
        </mxCell>
        <mxCell id="gZqIutaZhjVk858I8tLJ-32" value="제품코드" style="ellipse;whiteSpace=wrap;html=1;align=center;fontStyle=4;" vertex="1" parent="1">
          <mxGeometry x="460" y="500" width="100" height="40" as="geometry" />
        </mxCell>
        <mxCell id="gZqIutaZhjVk858I8tLJ-33" value="" style="endArrow=none;html=1;rounded=0;exitX=1;exitY=0.5;exitDx=0;exitDy=0;entryX=0.005;entryY=0.435;entryDx=0;entryDy=0;entryPerimeter=0;" edge="1" parent="1" source="gZqIutaZhjVk858I8tLJ-32" target="gZqIutaZhjVk858I8tLJ-28">
          <mxGeometry relative="1" as="geometry">
            <mxPoint x="560" y="440" as="sourcePoint" />
            <mxPoint x="610" y="385" as="targetPoint" />
          </mxGeometry>
        </mxCell>
        <mxCell id="gZqIutaZhjVk858I8tLJ-34" value="" style="endArrow=none;html=1;rounded=0;exitX=1;exitY=0.5;exitDx=0;exitDy=0;entryX=0.007;entryY=0.425;entryDx=0;entryDy=0;entryPerimeter=0;" edge="1" parent="1" source="gZqIutaZhjVk858I8tLJ-30" target="gZqIutaZhjVk858I8tLJ-28">
          <mxGeometry relative="1" as="geometry">
            <mxPoint x="570" y="530" as="sourcePoint" />
            <mxPoint x="608" y="595" as="targetPoint" />
          </mxGeometry>
        </mxCell>
        <mxCell id="gZqIutaZhjVk858I8tLJ-35" value="" style="endArrow=none;html=1;rounded=0;exitX=1;exitY=0.5;exitDx=0;exitDy=0;entryX=0.005;entryY=0.435;entryDx=0;entryDy=0;entryPerimeter=0;" edge="1" parent="1" source="gZqIutaZhjVk858I8tLJ-31" target="gZqIutaZhjVk858I8tLJ-28">
          <mxGeometry relative="1" as="geometry">
            <mxPoint x="570" y="600" as="sourcePoint" />
            <mxPoint x="611" y="597" as="targetPoint" />
          </mxGeometry>
        </mxCell>
        <mxCell id="gZqIutaZhjVk858I8tLJ-36" value="제품색상" style="ellipse;shape=doubleEllipse;margin=3;whiteSpace=wrap;html=1;align=center;" vertex="1" parent="1">
          <mxGeometry x="720" y="570" width="100" height="40" as="geometry" />
        </mxCell>
        <mxCell id="gZqIutaZhjVk858I8tLJ-37" value="가격" style="ellipse;whiteSpace=wrap;html=1;align=center;" vertex="1" parent="1">
          <mxGeometry x="490" y="710" width="100" height="40" as="geometry" />
        </mxCell>
        <mxCell id="gZqIutaZhjVk858I8tLJ-38" value="" style="endArrow=none;html=1;rounded=0;exitX=1;exitY=0.5;exitDx=0;exitDy=0;entryX=0;entryY=0.5;entryDx=0;entryDy=0;" edge="1" parent="1" source="gZqIutaZhjVk858I8tLJ-37" target="gZqIutaZhjVk858I8tLJ-28">
          <mxGeometry relative="1" as="geometry">
            <mxPoint x="570" y="670" as="sourcePoint" />
            <mxPoint x="611" y="597" as="targetPoint" />
          </mxGeometry>
        </mxCell>
        <mxCell id="gZqIutaZhjVk858I8tLJ-40" value="" style="endArrow=none;html=1;rounded=0;exitX=0;exitY=0.5;exitDx=0;exitDy=0;entryX=1;entryY=0.463;entryDx=0;entryDy=0;entryPerimeter=0;" edge="1" parent="1" source="gZqIutaZhjVk858I8tLJ-36" target="gZqIutaZhjVk858I8tLJ-28">
          <mxGeometry relative="1" as="geometry">
            <mxPoint x="570" y="720" as="sourcePoint" />
            <mxPoint x="610" y="600" as="targetPoint" />
          </mxGeometry>
        </mxCell>
        <mxCell id="gZqIutaZhjVk858I8tLJ-42" value="관리" style="shape=rhombus;perimeter=rhombusPerimeter;whiteSpace=wrap;html=1;align=center;" vertex="1" parent="1">
          <mxGeometry x="300" y="420" width="120" height="60" as="geometry" />
        </mxCell>
        <mxCell id="gZqIutaZhjVk858I8tLJ-44" value="" style="endArrow=none;html=1;rounded=0;exitX=0.5;exitY=1;exitDx=0;exitDy=0;entryX=0.5;entryY=0;entryDx=0;entryDy=0;" edge="1" parent="1" source="gZqIutaZhjVk858I8tLJ-1" target="gZqIutaZhjVk858I8tLJ-42">
          <mxGeometry relative="1" as="geometry">
            <mxPoint x="430" y="450" as="sourcePoint" />
            <mxPoint x="590" y="450" as="targetPoint" />
          </mxGeometry>
        </mxCell>
        <mxCell id="gZqIutaZhjVk858I8tLJ-45" value="N" style="resizable=0;html=1;whiteSpace=wrap;align=right;verticalAlign=bottom;" connectable="0" vertex="1" parent="gZqIutaZhjVk858I8tLJ-44">
          <mxGeometry x="1" relative="1" as="geometry" />
        </mxCell>
        <mxCell id="gZqIutaZhjVk858I8tLJ-50" value="" style="endArrow=none;html=1;rounded=0;entryX=0.5;entryY=1;entryDx=0;entryDy=0;exitX=1;exitY=0;exitDx=0;exitDy=0;" edge="1" parent="1" source="gZqIutaZhjVk858I8tLJ-21" target="gZqIutaZhjVk858I8tLJ-42">
          <mxGeometry relative="1" as="geometry">
            <mxPoint x="430" y="450" as="sourcePoint" />
            <mxPoint x="590" y="450" as="targetPoint" />
          </mxGeometry>
        </mxCell>
        <mxCell id="gZqIutaZhjVk858I8tLJ-51" value="1" style="resizable=0;html=1;whiteSpace=wrap;align=right;verticalAlign=bottom;" connectable="0" vertex="1" parent="gZqIutaZhjVk858I8tLJ-50">
          <mxGeometry x="1" relative="1" as="geometry">
            <mxPoint x="-10" y="20" as="offset" />
          </mxGeometry>
        </mxCell>
        <mxCell id="gZqIutaZhjVk858I8tLJ-52" value="구매" style="shape=rhombus;perimeter=rhombusPerimeter;whiteSpace=wrap;html=1;align=center;" vertex="1" parent="1">
          <mxGeometry x="590" y="400" width="120" height="60" as="geometry" />
        </mxCell>
        <mxCell id="gZqIutaZhjVk858I8tLJ-54" value="수량" style="ellipse;whiteSpace=wrap;html=1;align=center;" vertex="1" parent="1">
          <mxGeometry x="750" y="410" width="100" height="40" as="geometry" />
        </mxCell>
        <mxCell id="gZqIutaZhjVk858I8tLJ-55" value="구매일자" style="ellipse;whiteSpace=wrap;html=1;align=center;" vertex="1" parent="1">
          <mxGeometry x="750" y="490" width="100" height="40" as="geometry" />
        </mxCell>
        <mxCell id="gZqIutaZhjVk858I8tLJ-56" value="구매번호" style="ellipse;whiteSpace=wrap;html=1;align=center;fontStyle=4;" vertex="1" parent="1">
          <mxGeometry x="750" y="330" width="100" height="40" as="geometry" />
        </mxCell>
        <mxCell id="gZqIutaZhjVk858I8tLJ-57" value="" style="endArrow=none;html=1;rounded=0;exitX=1;exitY=1;exitDx=0;exitDy=0;entryX=0;entryY=0.5;entryDx=0;entryDy=0;" edge="1" parent="1" source="gZqIutaZhjVk858I8tLJ-1" target="gZqIutaZhjVk858I8tLJ-52">
          <mxGeometry relative="1" as="geometry">
            <mxPoint x="430" y="450" as="sourcePoint" />
            <mxPoint x="590" y="450" as="targetPoint" />
          </mxGeometry>
        </mxCell>
        <mxCell id="gZqIutaZhjVk858I8tLJ-58" value="N" style="resizable=0;html=1;whiteSpace=wrap;align=right;verticalAlign=bottom;" connectable="0" vertex="1" parent="gZqIutaZhjVk858I8tLJ-57">
          <mxGeometry x="1" relative="1" as="geometry">
            <mxPoint y="-10" as="offset" />
          </mxGeometry>
        </mxCell>
        <mxCell id="gZqIutaZhjVk858I8tLJ-60" value="" style="endArrow=none;html=1;rounded=0;entryX=0.5;entryY=1;entryDx=0;entryDy=0;exitX=0.5;exitY=0;exitDx=0;exitDy=0;" edge="1" parent="1" source="gZqIutaZhjVk858I8tLJ-28" target="gZqIutaZhjVk858I8tLJ-52">
          <mxGeometry relative="1" as="geometry">
            <mxPoint x="430" y="450" as="sourcePoint" />
            <mxPoint x="710" y="470" as="targetPoint" />
          </mxGeometry>
        </mxCell>
        <mxCell id="gZqIutaZhjVk858I8tLJ-61" value="M" style="resizable=0;html=1;whiteSpace=wrap;align=right;verticalAlign=bottom;" connectable="0" vertex="1" parent="gZqIutaZhjVk858I8tLJ-60">
          <mxGeometry x="1" relative="1" as="geometry">
            <mxPoint x="-10" y="20" as="offset" />
          </mxGeometry>
        </mxCell>
        <mxCell id="gZqIutaZhjVk858I8tLJ-62" value="" style="endArrow=none;html=1;rounded=0;exitX=0;exitY=0.5;exitDx=0;exitDy=0;entryX=1;entryY=0.5;entryDx=0;entryDy=0;" edge="1" parent="1" source="gZqIutaZhjVk858I8tLJ-56" target="gZqIutaZhjVk858I8tLJ-52">
          <mxGeometry relative="1" as="geometry">
            <mxPoint x="430" y="450" as="sourcePoint" />
            <mxPoint x="590" y="450" as="targetPoint" />
          </mxGeometry>
        </mxCell>
        <mxCell id="gZqIutaZhjVk858I8tLJ-63" value="" style="endArrow=none;html=1;rounded=0;exitX=0;exitY=0.5;exitDx=0;exitDy=0;entryX=1;entryY=0.5;entryDx=0;entryDy=0;" edge="1" parent="1" source="gZqIutaZhjVk858I8tLJ-54" target="gZqIutaZhjVk858I8tLJ-52">
          <mxGeometry relative="1" as="geometry">
            <mxPoint x="760" y="360" as="sourcePoint" />
            <mxPoint x="720" y="440" as="targetPoint" />
          </mxGeometry>
        </mxCell>
        <mxCell id="gZqIutaZhjVk858I8tLJ-64" value="" style="endArrow=none;html=1;rounded=0;exitX=-0.007;exitY=0.408;exitDx=0;exitDy=0;entryX=1;entryY=0.5;entryDx=0;entryDy=0;exitPerimeter=0;" edge="1" parent="1" source="gZqIutaZhjVk858I8tLJ-55" target="gZqIutaZhjVk858I8tLJ-52">
          <mxGeometry relative="1" as="geometry">
            <mxPoint x="760" y="440" as="sourcePoint" />
            <mxPoint x="720" y="440" as="targetPoint" />
          </mxGeometry>
        </mxCell>
      </root>
    </mxGraphModel>
  </diagram>
</mxfile>
